<?xml version="1.0" standalone="no"?>
<!DOCTYPE svg PUBLIC "-//W3C//DTD SVG 20010904//EN"
 "http://www.w3.org/TR/2001/REC-SVG-20010904/DTD/svg10.dtd">
<svg version="1.0" xmlns="http://www.w3.org/2000/svg"
 width="640.000000pt" height="640.000000pt" viewBox="0 0 640.000000 640.000000"
 preserveAspectRatio="xMidYMid meet">
<metadata>
Created by potrace 1.15, written by Peter Selinger 2001-2017
</metadata>
<g transform="translate(0.000000,640.000000) scale(0.100000,-0.100000)"
fill="#000000" stroke="none">
<path d="M526 5432 c-3 -3 -6 -1010 -6 -2239 l0 -2233 190 0 190 0 -2 2238 -3
2237 -182 2 c-100 0 -184 -2 -187 -5z"/>
<path d="M3830 4669 c-371 -118 -1194 -376 -1325 -415 -64 -19 -86 -31 -112
-61 l-33 -36 0 -800 c0 -757 -1 -799 -17 -794 -10 4 -52 18 -93 32 -259 90
-571 -5 -705 -215 -54 -85 -68 -137 -64 -247 4 -76 9 -98 38 -158 84 -172 299
-294 516 -295 271 0 506 156 564 375 7 27 11 334 11 923 0 697 3 883 13 887
16 5 654 205 837 262 80 24 193 60 252 79 59 19 110 34 113 34 3 0 5 -275 5
-611 0 -578 -1 -611 -17 -604 -137 56 -156 59 -293 60 -106 0 -147 -4 -190
-19 -158 -53 -278 -150 -340 -273 -33 -65 -35 -73 -35 -173 0 -102 1 -109 38
-182 61 -124 168 -212 322 -263 201 -68 426 -30 593 98 31 25 67 58 80 73 28
35 71 117 84 159 4 16 8 499 8 1073 0 1149 4 1074 -61 1108 -41 21 -82 17
-189 -17z"/>
</g>
</svg>
